<mxfile host="www.draw.io" modified="2020-03-08T08:34:54.133Z" agent="Mozilla/5.0 (Macintosh; Intel Mac OS X 10_15_3) AppleWebKit/605.1.15 (KHTML, like Gecko) Version/13.0.5 Safari/605.1.15" etag="Xl7BnalPeqAiTuqO3ZGr" version="12.8.1" type="github">
  <diagram id="zM9k4wGtAIwxK0_Jaxwm" name="Page-1">
    <mxGraphModel dx="842" dy="561" grid="0" gridSize="10" guides="1" tooltips="1" connect="1" arrows="1" fold="1" page="1" pageScale="1" pageWidth="850" pageHeight="1100" math="0" shadow="0">
      <root>
        <mxCell id="0" />
        <mxCell id="1" parent="0" />
        <mxCell id="JIHdxxwGfuIhn6PKHjwK-35" value="" style="rounded=0;whiteSpace=wrap;html=1;fontSize=29;align=left;fillColor=#E6E6E6;strokeColor=#6c8ebf;gradientColor=none;gradientDirection=south;" vertex="1" parent="1">
          <mxGeometry x="10" y="5" width="837" height="534" as="geometry" />
        </mxCell>
        <mxCell id="JIHdxxwGfuIhn6PKHjwK-1" value="" style="rounded=1;whiteSpace=wrap;html=1;fillColor=#fa6800;strokeColor=#C73500;fontColor=#ffffff;gradientColor=#ffffff;gradientDirection=south;" vertex="1" parent="1">
          <mxGeometry x="19" y="107" width="200" height="388" as="geometry" />
        </mxCell>
        <mxCell id="JIHdxxwGfuIhn6PKHjwK-2" value="" style="rounded=1;whiteSpace=wrap;html=1;gradientColor=#97d077;fillColor=#d5e8d4;strokeColor=#82b366;gradientDirection=north;" vertex="1" parent="1">
          <mxGeometry x="224" y="107" width="200" height="390" as="geometry" />
        </mxCell>
        <mxCell id="JIHdxxwGfuIhn6PKHjwK-3" value="" style="rounded=1;whiteSpace=wrap;html=1;gradientColor=#ea6b66;fillColor=#f8cecc;strokeColor=#b85450;gradientDirection=north;" vertex="1" parent="1">
          <mxGeometry x="428" y="107" width="200" height="390" as="geometry" />
        </mxCell>
        <mxCell id="JIHdxxwGfuIhn6PKHjwK-4" value="" style="rounded=1;whiteSpace=wrap;html=1;gradientColor=#ffd966;fillColor=#fff2cc;strokeColor=#d6b656;gradientDirection=north;" vertex="1" parent="1">
          <mxGeometry x="632" y="104" width="200" height="393" as="geometry" />
        </mxCell>
        <mxCell id="JIHdxxwGfuIhn6PKHjwK-19" style="edgeStyle=orthogonalEdgeStyle;rounded=0;orthogonalLoop=1;jettySize=auto;html=1;exitX=1;exitY=0.75;exitDx=0;exitDy=0;entryX=0;entryY=1;entryDx=0;entryDy=0;curved=1;strokeColor=#006600;" edge="1" parent="1" source="JIHdxxwGfuIhn6PKHjwK-8" target="JIHdxxwGfuIhn6PKHjwK-11">
          <mxGeometry relative="1" as="geometry">
            <Array as="points">
              <mxPoint x="114" y="217" />
              <mxPoint x="187" y="217" />
              <mxPoint x="187" y="302" />
              <mxPoint x="294" y="302" />
            </Array>
          </mxGeometry>
        </mxCell>
        <mxCell id="JIHdxxwGfuIhn6PKHjwK-20" value="将数据返回给视图" style="text;align=center;verticalAlign=middle;resizable=0;points=[];labelBackgroundColor=none;" vertex="1" connectable="0" parent="JIHdxxwGfuIhn6PKHjwK-19">
          <mxGeometry x="-0.1607" y="-5" relative="1" as="geometry">
            <mxPoint x="-25" y="3" as="offset" />
          </mxGeometry>
        </mxCell>
        <mxCell id="JIHdxxwGfuIhn6PKHjwK-8" value="Models" style="rounded=1;whiteSpace=wrap;html=1;fillColor=#aa00ff;strokeColor=none;fontColor=#ffffff;" vertex="1" parent="1">
          <mxGeometry x="38" y="194" width="76" height="60" as="geometry" />
        </mxCell>
        <mxCell id="JIHdxxwGfuIhn6PKHjwK-10" value="数据库" style="shape=cylinder;whiteSpace=wrap;html=1;boundedLbl=1;backgroundOutline=1;fillColor=#dae8fc;strokeColor=#6c8ebf;gradientColor=#7ea6e0;" vertex="1" parent="1">
          <mxGeometry x="46" y="351" width="60" height="80" as="geometry" />
        </mxCell>
        <mxCell id="JIHdxxwGfuIhn6PKHjwK-22" value="Models里取数据" style="edgeStyle=orthogonalEdgeStyle;curved=1;rounded=0;orthogonalLoop=1;jettySize=auto;html=1;exitX=0;exitY=0;exitDx=0;exitDy=0;entryX=0.5;entryY=0;entryDx=0;entryDy=0;strokeColor=#006600;labelBackgroundColor=none;" edge="1" parent="1" source="JIHdxxwGfuIhn6PKHjwK-11" target="JIHdxxwGfuIhn6PKHjwK-8">
          <mxGeometry relative="1" as="geometry">
            <Array as="points">
              <mxPoint x="294" y="224" />
              <mxPoint x="198" y="224" />
              <mxPoint x="198" y="159" />
              <mxPoint x="76" y="159" />
            </Array>
          </mxGeometry>
        </mxCell>
        <mxCell id="JIHdxxwGfuIhn6PKHjwK-25" style="edgeStyle=orthogonalEdgeStyle;curved=1;rounded=0;orthogonalLoop=1;jettySize=auto;html=1;entryX=0;entryY=1;entryDx=0;entryDy=0;strokeColor=#006600;" edge="1" parent="1" source="JIHdxxwGfuIhn6PKHjwK-11" target="JIHdxxwGfuIhn6PKHjwK-12">
          <mxGeometry relative="1" as="geometry">
            <Array as="points">
              <mxPoint x="322" y="363" />
              <mxPoint x="439" y="363" />
              <mxPoint x="439" y="306" />
              <mxPoint x="474" y="306" />
              <mxPoint x="474" y="339" />
            </Array>
          </mxGeometry>
        </mxCell>
        <mxCell id="JIHdxxwGfuIhn6PKHjwK-26" value="把要显示的数据返回给模板" style="text;html=1;align=center;verticalAlign=middle;resizable=0;points=[];labelBackgroundColor=none;" vertex="1" connectable="0" parent="JIHdxxwGfuIhn6PKHjwK-25">
          <mxGeometry x="-0.2252" y="3" relative="1" as="geometry">
            <mxPoint x="-14" y="-23" as="offset" />
          </mxGeometry>
        </mxCell>
        <mxCell id="JIHdxxwGfuIhn6PKHjwK-11" value="views.py&lt;br&gt;视图" style="ellipse;whiteSpace=wrap;html=1;aspect=fixed;fillColor=#1ba1e2;strokeColor=none;fontColor=#ffffff;" vertex="1" parent="1">
          <mxGeometry x="282" y="184" width="80" height="80" as="geometry" />
        </mxCell>
        <mxCell id="JIHdxxwGfuIhn6PKHjwK-27" value="模板就是html文件" style="edgeStyle=orthogonalEdgeStyle;curved=1;rounded=0;orthogonalLoop=1;jettySize=auto;html=1;strokeColor=#006600;labelBackgroundColor=none;" edge="1" parent="1" source="JIHdxxwGfuIhn6PKHjwK-12" target="JIHdxxwGfuIhn6PKHjwK-16">
          <mxGeometry relative="1" as="geometry">
            <Array as="points">
              <mxPoint x="629" y="311" />
              <mxPoint x="629" y="400" />
              <mxPoint x="717" y="400" />
            </Array>
          </mxGeometry>
        </mxCell>
        <mxCell id="JIHdxxwGfuIhn6PKHjwK-12" value="Template&lt;br&gt;模板" style="ellipse;whiteSpace=wrap;html=1;aspect=fixed;fillColor=#60a917;strokeColor=none;fontColor=#ffffff;" vertex="1" parent="1">
          <mxGeometry x="488" y="271" width="80" height="80" as="geometry" />
        </mxCell>
        <mxCell id="JIHdxxwGfuIhn6PKHjwK-23" style="edgeStyle=orthogonalEdgeStyle;curved=1;rounded=0;orthogonalLoop=1;jettySize=auto;html=1;entryX=1;entryY=0;entryDx=0;entryDy=0;strokeColor=#006600;" edge="1" parent="1" source="JIHdxxwGfuIhn6PKHjwK-15" target="JIHdxxwGfuIhn6PKHjwK-11">
          <mxGeometry relative="1" as="geometry">
            <Array as="points">
              <mxPoint x="717" y="145" />
              <mxPoint x="510" y="145" />
              <mxPoint x="510" y="215" />
              <mxPoint x="373" y="215" />
              <mxPoint x="373" y="196" />
            </Array>
          </mxGeometry>
        </mxCell>
        <mxCell id="JIHdxxwGfuIhn6PKHjwK-24" value="根据url匹配相应视图函数" style="text;html=1;align=center;verticalAlign=middle;resizable=0;points=[];labelBackgroundColor=none;" vertex="1" connectable="0" parent="JIHdxxwGfuIhn6PKHjwK-23">
          <mxGeometry x="0.2176" y="-10" relative="1" as="geometry">
            <mxPoint as="offset" />
          </mxGeometry>
        </mxCell>
        <mxCell id="JIHdxxwGfuIhn6PKHjwK-15" value="URL&lt;br&gt;控制器" style="rounded=0;whiteSpace=wrap;html=1;fillColor=#6d8764;strokeColor=none;fontColor=#ffffff;" vertex="1" parent="1">
          <mxGeometry x="657" y="190" width="120" height="64" as="geometry" />
        </mxCell>
        <mxCell id="JIHdxxwGfuIhn6PKHjwK-28" value="在页面输入访问url" style="edgeStyle=orthogonalEdgeStyle;curved=1;rounded=0;orthogonalLoop=1;jettySize=auto;html=1;entryX=1;entryY=0.391;entryDx=0;entryDy=0;entryPerimeter=0;strokeColor=#006600;labelBackgroundColor=none;" edge="1" parent="1" source="JIHdxxwGfuIhn6PKHjwK-16" target="JIHdxxwGfuIhn6PKHjwK-15">
          <mxGeometry relative="1" as="geometry">
            <Array as="points">
              <mxPoint x="717" y="274" />
              <mxPoint x="797" y="274" />
              <mxPoint x="797" y="215" />
            </Array>
          </mxGeometry>
        </mxCell>
        <mxCell id="JIHdxxwGfuIhn6PKHjwK-16" value="" style="dashed=0;outlineConnect=0;html=1;align=center;labelPosition=center;verticalLabelPosition=bottom;verticalAlign=top;shape=mxgraph.webicons.messenger;gradientColor=#DFDEDE" vertex="1" parent="1">
          <mxGeometry x="689.5" y="318" width="55" height="58" as="geometry" />
        </mxCell>
        <mxCell id="JIHdxxwGfuIhn6PKHjwK-18" value="数据库存储数据" style="endArrow=classic;startArrow=classic;html=1;entryX=0.5;entryY=1;entryDx=0;entryDy=0;exitX=0.5;exitY=0;exitDx=0;exitDy=0;strokeColor=#006600;labelBackgroundColor=none;" edge="1" parent="1" source="JIHdxxwGfuIhn6PKHjwK-10" target="JIHdxxwGfuIhn6PKHjwK-8">
          <mxGeometry width="50" height="50" relative="1" as="geometry">
            <mxPoint x="98" y="337" as="sourcePoint" />
            <mxPoint x="148" y="287" as="targetPoint" />
          </mxGeometry>
        </mxCell>
        <mxCell id="JIHdxxwGfuIhn6PKHjwK-29" value="模型" style="text;html=1;strokeColor=none;fillColor=none;align=center;verticalAlign=middle;whiteSpace=wrap;rounded=0;fontSize=30;" vertex="1" parent="1">
          <mxGeometry x="83.5" y="454" width="71" height="20" as="geometry" />
        </mxCell>
        <mxCell id="JIHdxxwGfuIhn6PKHjwK-30" value="视图" style="text;html=1;strokeColor=none;fillColor=none;align=center;verticalAlign=middle;whiteSpace=wrap;rounded=0;fontSize=30;" vertex="1" parent="1">
          <mxGeometry x="286.5" y="451" width="71" height="20" as="geometry" />
        </mxCell>
        <mxCell id="JIHdxxwGfuIhn6PKHjwK-31" value="模板" style="text;html=1;strokeColor=none;fillColor=none;align=center;verticalAlign=middle;whiteSpace=wrap;rounded=0;fontSize=30;" vertex="1" parent="1">
          <mxGeometry x="488" y="451" width="71" height="20" as="geometry" />
        </mxCell>
        <mxCell id="JIHdxxwGfuIhn6PKHjwK-32" value="控制器" style="text;html=1;strokeColor=none;fillColor=none;align=center;verticalAlign=middle;whiteSpace=wrap;rounded=0;fontSize=30;" vertex="1" parent="1">
          <mxGeometry x="682" y="444" width="106.5" height="34" as="geometry" />
        </mxCell>
        <mxCell id="JIHdxxwGfuIhn6PKHjwK-33" value="Django运行图解&lt;br&gt;&lt;font style=&quot;font-size: 8px&quot;&gt;作者：独孤求败 &amp;nbsp; &amp;nbsp; &amp;nbsp;邮箱：david.tian@live.com&lt;/font&gt;" style="text;html=1;strokeColor=none;fillColor=none;align=left;verticalAlign=middle;whiteSpace=wrap;rounded=0;fontSize=30;fontFamily=Helvetica;" vertex="1" parent="1">
          <mxGeometry x="33" y="30" width="275" height="47" as="geometry" />
        </mxCell>
      </root>
    </mxGraphModel>
  </diagram>
</mxfile>
